<svg xmlns="http://www.w3.org/2000/svg" width="75" height="75"><path d="M70.722 4.278v66.445H4.278V4.278h66.444M75 0H0v75h75V0z"/><path d="M22.887 9.85c-7.164 0-12.766 5.633-12.766 12.694 0 6.99 5.495 12.627 13.149 12.627 6.816 0 11.998-4.522 11.998-11.967v-2.085H23.061v4.87h6.503c-.87 2.33-2.991 3.754-6.227 3.754-4.727 0-7.651-3.026-7.651-7.164 0-4.28 3.062-7.303 7.164-7.303 2.749 0 4.941 1.25 5.95 2.852l4.727-2.714c-2.048-3.269-5.98-5.564-10.64-5.564zm29.384 0c-7.164 0-12.766 5.633-12.766 12.694 0 6.99 5.495 12.627 13.149 12.627 6.816 0 11.998-4.522 11.998-11.967v-2.085H52.445v4.87h6.503c-.87 2.33-2.991 3.754-6.227 3.754-4.731 0-7.651-3.026-7.651-7.164 0-4.28 3.062-7.303 7.164-7.303 2.749 0 4.941 1.25 5.95 2.852l4.727-2.714c-2.048-3.269-5.98-5.564-10.64-5.564zM35.589 40.801h-5.566L23.417 51.62l-6.61-10.819h-5.566V65.15h5.566V50.995l6.298 10.329h.625l6.293-10.329V65.15h5.566V40.801zm29.29 0h-5.566L52.702 51.62l-6.606-10.819H40.53V65.15h5.566V50.995l6.294 10.329h.629l6.294-10.329V65.15h5.566V40.801z"/></svg>